{"title":"Vikings.S02.Complete.720p.WEB-DL.DD5.1.H.264-CtrlHD","uid":10095898,"size":15086077615,"categoryP":"video","categoryS":"hd___tv_shows","magnet":"?xt=urn:btih:fe42058992721941d979e48bcfe2cd9b8d8c8836&amp;dn=Vikings.S02.Complete.720p.WEB-DL.DD5.1.H.264-CtrlHD&amp;tr=udp%3A%2F%2Ftracker.openbittorrent.com%3A80&amp;tr=udp%3A%2F%2Fopen.demonii.com%3A1337&amp;tr=udp%3A%2F%2Ftracker.coppersurfer.tk%3A6969&amp;tr=udp%3A%2F%2Fexodus.desync.com%3A6969","seeders":26,"leechers":12,"uploader":"kanaille","files":-1,"time":1399250608,"description":"10Ã—45minutes\n\n\nVikings.S02E01.Brother's.War.720p.WEB-DL.DD5.1.H.264-CtrlHD.mkv\nVikings.S02E02.Invasion.720p.WEB-DL.DD5.1.H.264-CtrlHD.mkv\nVikings.S02E03.Treachery.720p.WEB-DL.DD5.1.H.264-CtrlHD.mkv\nVikings.S02E04.Eye.for.an.Eye.720p.WEB-DL.DD5.1.H.264-CtrlHD.mkv\nVikings.S02E05.Answers.In.Blood.720p.WEB-DL.DD5.1.H.264-CtrlHD.mkv\nVikings.S02E06.Unforgiven.720p.WEB-DL.DD5.1.H.264-CtrlHD.mkv\nVikings.S02E07.Blood.Eagle.720p.WEB-DL.DD5.1.H.264-CtrlHD.mkv\nVikings.S02E08.Boneless.720p.WEB-DL.DD5.1.H.264-CtrlHD.mkv\nVikings.S02E09.The.Choice.720p.WEB-DL.DD5.1.H.264-CtrlHD.mkv\nVikings.S02E10.The.Lord's.Prayer.720p.WEB-DL.DD5.1.H.264-CtrlHD.mkv\n\n\nScreenshoots : &lt;a href=&quot;\nhttps://lut.im/WuNyE98D/iyO6wb72&quot; rel=&quot;nofollow&quot; target=&quot;_NEW&quot;&gt;\nhttps://lut.im/WuNyE98D/iyO6wb72&lt;/a&gt; &lt;a href=&quot;\nhttps://lut.im/tyxcmR3c/U7S5oGTb&quot; rel=&quot;nofollow&quot; target=&quot;_NEW&quot;&gt;\nhttps://lut.im/tyxcmR3c/U7S5oGTb&lt;/a&gt; &lt;a href=&quot;\nhttps://lut.im/adAzQWeN/ah6NknF3&quot; rel=&quot;nofollow&quot; target=&quot;_NEW&quot;&gt;\nhttps://lut.im/adAzQWeN/ah6NknF3&lt;/a&gt; &lt;a href=&quot;\nhttps://lut.im/TL7g7Ev7/EkJfcxHW&quot; rel=&quot;nofollow&quot; target=&quot;_NEW&quot;&gt;\nhttps://lut.im/TL7g7Ev7/EkJfcxHW&lt;/a&gt;\n\n\n#########\n\nGeneral\nUnique ID                                : 213754271000380960347340721249966086247 (0xA0CF933B75A100A3BCC74F2B6833D867)\nComplete name                            : Vikings.S02E07.Blood.Eagle.720p.WEB-DL.DD5.1.H.264-CtrlHD.mkv\nFormat                                   : Matroska\nFormat version                           : Version 2\nFile size                                : 1.44 GiB\nDuration                                 : 44mn 9s\nOverall bit rate                         : 4 672 Kbps\nEncoded date                             : UTC 2014-04-11 07:35:51\nWriting application                      : mkvmerge v5.8.0 ('No Sleep / Pillow') built on Sep  2 2012 15:37:04\nWriting library                          : libebml v1.2.3 + libmatroska v1.3.0\n\nVideo\nID                                       : 1\nFormat                                   : AVC\nFormat/Info                              : Advanced Video Codec\nFormat profile                           : &lt;a class=&quot;__cf_email__&quot; href=&quot;/cdn-cgi/l/email-protection&quot; data-cfemail=&quot;652d0c020d2529564b54&quot;&gt;[email&amp;#160;protected]&lt;/a&gt;&lt;script cf-hash='f9e31' type=&quot;text/javascript&quot;&gt;\n/* &lt;![CDATA[ */!function(){try{var t=&quot;currentScript&quot;in document?document.currentScript:function(){for(var t=document.getElementsByTagName(&quot;script&quot;),e=t.length;e--;)if(t[e].getAttribute(&quot;cf-hash&quot;))return t[e]}();if(t&amp;&amp;t.previousSibling){var e,r,n,i,c=t.previousSibling,a=c.getAttribute(&quot;data-cfemail&quot;);if(a){for(e=&quot;&quot;,r=parseInt(a.substr(0,2),16),n=2;a.length-n;n+=2)i=parseInt(a.substr(n,2),16)^r,e+=String.fromCharCode(i);e=document.createTextNode(e),c.parentNode.replaceChild(e,c)}}}catch(u){}}();/* ]]&gt; */&lt;/script&gt;\nFormat settings, CABAC                   : No\nFormat settings, ReFrames                : 2 frames\nCodec ID                                 : V_MPEG4/ISO/AVC\nDuration                                 : 44mn 9s\nBit rate                                 : 4 195 Kbps\nWidth                                    : 1 280 pixels\nHeight                                   : 718 pixels\nDisplay aspect ratio                     : 16:9\nFrame rate mode                          : Constant\nFrame rate                               : 23.976 fps\nColor space                              : YUV\nChroma subsampling                       : 4:2:0\nBit depth                                : 8 bits\nScan type                                : Progressive\nBits/(Pixel*Frame)                       : 0.190\nStream size                              : 1.29 GiB (90%)\nLanguage                                 : English\nDefault                                  : Yes\nForced                                   : No\nColor primaries                          : BT.709\nTransfer characteristics                 : BT.709\nMatrix coefficients                      : BT.709\n\nAudio\nID                                       : 2\nFormat                                   : AC-3\nFormat/Info                              : Audio Coding 3\nMode extension                           : CM (complete main)\nFormat settings, Endianness              : Big\nCodec ID                                 : A_AC3\nDuration                                 : 44mn 9s\nBit rate mode                            : Constant\nBit rate                                 : 384 Kbps\nChannel(s)                               : 6 channels\nChannel positions                        : Front: L C R, Side: L R, LFE\nSampling rate                            : 48.0 KHz\nBit depth                                : 16 bits\nCompression mode                         : Lossy\nStream size                              : 121 MiB (8%)\nLanguage                                 : English\nDefault                                  : Yes\nForced                                   : No\n\nText\nID                                       : 3\nFormat                                   : UTF-8\nCodec ID                                 : S_TEXT/UTF8\nCodec ID/Info                            : UTF-8 Plain Text\nTitle                                    : CC\nLanguage                                 : English\nDefault                                  : No\nForced                                   : No","torrent":{"xt":"urn:btih:fe42058992721941d979e48bcfe2cd9b8d8c8836","amp;dn":"Vikings.S02.Complete.720p.WEB-DL.DD5.1.H.264-CtrlHD","amp;tr":["udp%3A%2F%2Ftracker.openbittorrent.com%3A80","udp%3A%2F%2Fopen.demonii.com%3A1337","udp%3A%2F%2Ftracker.coppersurfer.tk%3A6969","udp%3A%2F%2Fexodus.desync.com%3A6969"],"infoHash":"fe42058992721941d979e48bcfe2cd9b8d8c8836","infoHashBuffer":{"type":"Buffer","data":[254,66,5,137,146,114,25,65,217,121,228,139,207,226,205,155,141,140,136,54]},"announce":[],"urlList":[]}}